<?xml version="1.0" encoding="UTF-8"?>
<svg width="110px" height="46px" viewBox="0 0 110 46" version="1.1" xmlns="http://www.w3.org/2000/svg" xmlns:xlink="http://www.w3.org/1999/xlink">
    <title>Group</title>
    <g id="Page-1" stroke="none" stroke-width="1" fill="none" fill-rule="evenodd">
        <g id="Group" transform="translate(0.000000, 0.000000)" fill="#5A0078" fill-rule="nonzero">
            <g id="Vector-1" transform="translate(86.955322, -0.000000)">
                <path d="M5.1672278,6.8964512 C4.4616078,6.8964512 3.7848878,7.1784012 3.2859378,7.6802612 C2.7869878,8.1821212 2.5066678,8.8627812 2.5066678,9.5725212 C2.5066678,10.2822812 2.7869878,10.9628812 3.2859378,11.4647812 C3.7848878,11.9666812 4.4616078,12.2485812 5.1672278,12.2485812 C5.8728478,12.2485812 6.5495678,11.9666812 7.0485078,11.4647812 C7.5474578,10.9628812 7.8277578,10.2822812 7.8277578,9.5725212 C7.8277578,8.8627812 7.5474578,8.1821212 7.0485078,7.6802612 C6.5495678,7.1784012 5.8728478,6.8964512 5.1672278,6.8964512 Z M10.1366778,0.0117823 C10.1366778,0.1296702 10.1366778,0.2475562 10.1366778,0.3772332 L10.1366778,14.4059812 L7.5816378,14.4059812 L7.5816378,13.4392812 L7.5113178,13.4392812 C7.3941078,13.5571812 7.2886178,13.7103812 7.1714078,13.8046812 C6.5963078,14.2878812 5.8964178,14.5965812 5.1534578,14.6946812 C4.4104878,14.7927812 3.6551178,14.6762812 2.9755078,14.3587812 C2.1872178,14.0511812 1.4998078,13.5285812 0.990497801,12.8496812 C0.481187801,12.1707812 0.170107801,11.3624812 0.0922578012,10.5155812 C-0.0385111988,9.8201212 -0.0301791988,9.1053812 0.116717801,8.4131412 C0.263627801,7.7209012 0.546167801,7.0650412 0.947857801,6.4838512 C1.4918478,5.6570512 2.2937878,5.0357112 3.2274278,4.7177112 C4.1610578,4.3997012 5.1733378,4.4030812 6.1048478,4.7273112 C6.5902678,4.9633012 7.0531978,5.2434712 7.4878478,5.5643312 C7.4960778,5.5254712 7.4960778,5.4852912 7.4878478,5.4464312 L7.4878478,0.1886072 C7.4878478,0.1178742 7.4878478,0.0471553 7.4878478,3.03576608e-16 C8.3903278,0.0117888 9.2576778,0.0117823 10.1366778,0.0117823 Z" id="Shape"></path>
            </g>
            <g id="Vector-2" transform="translate(44.385254, 0.011841)">
                <path d="M4.946026,6.8846704 C4.605576,6.8808904 4.267986,6.9475204 3.954216,7.0804404 C3.640436,7.2133504 3.357156,7.4097104 3.121966,7.6573204 C2.886776,7.9049404 2.704706,8.1985304 2.587026,8.5198804 C2.469336,8.8412304 2.418576,9.1834704 2.437866,9.5253704 C2.412276,9.8713504 2.457226,10.2189404 2.569996,10.5468404 C2.682766,10.8746404 2.860966,11.1759404 3.093636,11.4320404 C3.326316,11.6881404 3.608546,11.8937404 3.923056,12.0361404 C4.237566,12.1786404 4.577716,12.2549404 4.922596,12.2603404 C5.588136,12.1976404 6.206446,11.8873404 6.656516,11.3901404 C7.106586,10.8930404 7.355996,10.2448404 7.355996,9.5725204 C7.355996,8.9001604 7.106586,8.2520004 6.656516,7.7548704 C6.206446,7.2577504 5.588136,6.9474404 4.922596,6.8846704 L4.946026,6.8846704 Z M2.601936,0 L2.601936,5.6586404 L2.742576,5.5643304 C3.239646,5.0359604 3.881306,4.6677004 4.586446,4.5061304 C5.291586,4.3445504 6.028536,4.3969104 6.704086,4.6565804 C7.550356,4.8783404 8.312466,5.3470604 8.894366,6.0036904 C9.476276,6.6603204 9.851946,7.4754904 9.974146,8.3464904 C10.187646,9.1814204 10.192346,10.0565404 9.987846,10.8937404 C9.783346,11.7309404 9.375966,12.5042404 8.802056,13.1445404 C8.248026,13.7956404 7.516906,14.2697404 6.698576,14.5085404 C5.880246,14.7473404 5.010376,14.7403404 4.195936,14.4884404 C3.619006,14.3408404 3.102546,14.0152404 2.719146,13.5571404 C2.657086,13.4934404 2.590476,13.4343404 2.519886,13.3803404 L2.519886,14.3941404 L0,14.3941404 L0,0 C0.843866,0 1.699466,0 2.566776,0 L2.601936,0 Z" id="Shape"></path>
            </g>
            <g id="Vector-3" transform="translate(98.551514, 4.441650)">
                <path d="M7.77634634,5.35494097 C7.82012634,4.71253097 7.66005634,4.07273097 7.31923634,3.52766097 C7.03124634,3.10885097 6.62452634,2.78701097 6.15205634,2.60407097 C5.67958634,2.42113097 5.16329634,2.38557097 4.67043634,2.50204097 C4.19035634,2.59156097 3.74854634,2.82538097 3.40328634,3.17265097 C3.05803634,3.51992097 2.82557634,3.96431097 2.73657634,4.44719097 C2.58461634,4.97246097 2.60009634,5.53244097 2.78089634,6.04839097 C2.96168634,6.56433097 3.29869634,7.01032097 3.74451634,7.32367097 C4.12830634,7.61389097 4.58844634,7.78427097 5.06771634,7.81362097 C5.54698634,7.84296097 6.02424634,7.72997097 6.44019634,7.48871097 C6.84089634,7.29675097 7.17920634,6.99432097 7.41573634,6.61658097 C7.65226634,6.23885097 7.77730634,5.80135097 7.77634634,5.35494097 Z M10.4485863,5.61429097 C10.4485863,5.88543097 10.3547863,6.14479097 10.2844863,6.43951097 C10.0441863,7.40417097 9.52128634,8.27395097 8.78353634,8.93609097 C8.04582634,9.59823097 7.12732634,10.022131 6.14718634,10.152931 C4.78242634,10.401031 3.37493634,10.118731 2.20914634,9.36313097 C1.38893634,8.79864097 0.751566335,8.00435097 0.376109335,7.07879097 C0.000651335052,6.15324097 -0.0963826649,5.13717097 0.0970833351,4.15666097 C0.290549335,3.17615097 0.765976335,2.27436097 1.46438634,1.56318097 C2.16278634,0.851990966 3.05342634,0.362714966 4.02579634,0.156059966 C5.15418634,-0.127467034 6.34447634,-0.0226160344 7.40668634,0.453892966 C8.46889634,0.930400966 9.34180634,1.75109097 9.88608634,2.78496097 C10.1030863,3.32276097 10.2717863,3.87907097 10.3899863,4.44719097 L10.4602863,4.65940097 L10.4485863,5.61429097 Z" id="Shape"></path>
            </g>
            <g id="Vector-4" transform="translate(55.642334, 4.467041)">
                <path d="M6.95660601,4.19783021 C6.93821601,3.91252021 6.86170601,3.63406021 6.73187601,3.37972021 C6.60203601,3.12538021 6.42162601,2.90059021 6.20182601,2.71930021 C5.98202601,2.53801021 5.72753601,2.40410021 5.45413601,2.32586021 C5.18073601,2.24762021 4.89427601,2.22671021 4.61251601,2.26446021 C4.12648601,2.31177021 3.67345601,2.53292021 3.33578601,2.88771021 C2.99810601,3.24249021 2.79819601,3.70736021 2.77240601,4.19783021 L6.95660601,4.19783021 Z M7.64810601,7.10967021 C8.15208601,7.65196021 8.63260601,8.18247021 9.13658601,8.76012021 C8.62604601,9.23601021 8.02365601,9.60114021 7.36682601,9.83284021 C6.08122601,10.3131402 4.67655601,10.3668402 3.35842601,9.98614021 C2.46895601,9.73494021 1.67697601,9.21648021 1.08841601,8.50019021 C0.499856012,7.78390021 0.142784012,6.90392021 0.0649860122,5.97796021 C-0.113898988,4.79697021 0.0787030122,3.58927021 0.615846012,2.52382021 C0.985366012,1.78731021 1.54701601,1.16570021 2.24067601,0.72547021 C2.93433601,0.28525221 3.73390601,0.0429882095 4.55389601,0.0245952095 C5.48747601,-0.0740697905 6.42823601,0.12568821 7.24249601,0.59551021 C8.05675601,1.06533021 8.70311601,1.78131021 9.08972601,2.64172021 C9.52846601,3.70300021 9.68206601,4.86168021 9.53506601,6.00152021 L2.76066601,6.00152021 C2.79424601,6.42949021 2.95539601,6.83733021 3.22304601,7.17173021 C3.49068601,7.50614021 3.85237601,7.75158021 4.26088601,7.87596021 C4.79452601,8.02737021 5.35623601,8.04968021 5.90009601,7.94109021 C6.44394601,7.83251021 6.95456601,7.59608021 7.39025601,7.25113021 C7.44718601,7.20350021 7.51027601,7.16386021 7.57778601,7.13326021 L7.64810601,7.10967021 Z" id="Shape"></path>
            </g>
            <g id="Vector-5" transform="translate(76.145508, 4.456543)">
                <path d="M6.92894216,4.20829817 C6.87393216,3.68407817 6.62795216,3.19888817 6.23840216,2.84625817 C5.84886216,2.49362817 5.34331216,2.29851817 4.81924216,2.29851817 C4.29517216,2.29851817 3.78965216,2.49362817 3.40011216,2.84625817 C3.01057216,3.19888817 2.76459216,3.68407817 2.70958216,4.20829817 L6.92894216,4.20829817 Z M2.70958216,5.98842817 C2.77311216,6.51051817 3.01452216,6.99432817 3.39274216,7.35756817 C3.77097216,7.72080817 4.26263216,7.94100817 4.78408216,7.98071817 C5.68426216,8.06966817 6.58548216,7.82207817 7.31570216,7.28518817 C7.40946216,7.28518817 7.47979216,7.16729817 7.57355216,7.12013817 L7.63217216,7.12013817 L7.72592216,7.19086817 C8.17130216,7.68599817 8.65185216,8.19292817 9.13239216,8.74700817 L8.88623216,8.95919817 C7.94671216,9.71433817 6.79407216,10.1516382 5.59279216,10.2088382 C4.80362216,10.2855382 4.00715216,10.2054382 3.24871216,9.97303817 C2.53388216,9.75353817 1.88546216,9.35673817 1.36316216,8.81902817 C0.840870156,8.28132817 0.461507156,7.62005817 0.260013156,6.89614817 C-0.151517904,5.55326817 -0.0725395441,4.10670817 0.482704156,2.81722817 C0.817425156,2.00299817 1.38226216,1.30542817 2.10724216,0.810898171 C2.83223216,0.316372171 3.68549216,0.0466231713 4.56139216,0.0350621713 C5.45296216,-0.0788588287 6.35781216,0.0863661713 7.15267216,0.508263171 C7.94752216,0.930158171 8.59377216,1.58822817 9.00344216,2.39282817 C9.52432216,3.43834817 9.72426216,4.61608817 9.57777216,5.77621817 C9.57777216,5.84694817 9.44883216,5.91767817 9.37851216,5.94125817 C9.30868216,5.95312817 9.23737216,5.95312817 9.16755216,5.94125817 L2.69784216,5.94125817 L2.70958216,5.98842817 Z" id="Shape"></path>
            </g>
            <g id="Vector-6" transform="translate(66.279053, 4.385986)">
                <path d="M-2.22044605e-16,9.17130505 C0.351613,8.49934505 0.691511,7.86273505 1.031407,7.19077505 C1.651597,7.60678505 2.349437,7.89156505 3.082477,8.02779505 C3.775867,8.15735505 4.487057,8.15735505 5.180447,8.02779505 C5.385877,7.98302505 5.580837,7.89897505 5.754737,7.78021505 C5.871177,7.73244505 5.970837,7.65086505 6.040987,7.54588505 C6.111137,7.44090505 6.148607,7.31726505 6.148607,7.19077505 C6.148607,7.06428505 6.111137,6.94067505 6.040987,6.83568505 C5.970837,6.73070505 5.871177,6.64911505 5.754737,6.60133505 C5.343217,6.44559505 4.919937,6.32338505 4.488947,6.23588505 C3.750557,6.07084505 3.000447,6.00011505 2.285497,5.76433505 C1.831097,5.64788505 1.419487,5.40268505 1.099537,5.05788505 C0.779597,4.71308505 0.564743,4.28315505 0.480542,3.81917505 C0.379391,3.44661505 0.354525,3.05727505 0.407396,2.67475505 C0.460268,2.29223505 0.589795,1.92449505 0.788147,1.59381505 C0.986497,1.26314505 1.249527,0.976415046 1.561307,0.751015046 C1.873087,0.525611046 2.227107,0.366230046 2.601937,0.282524046 C4.591907,-0.248381954 6.706417,-0.0260509543 8.544207,0.907335046 C8.251187,1.60287505 7.969907,2.25125505 7.712057,2.87606505 C7.020557,2.65207505 6.352477,2.43988505 5.684417,2.27483505 C5.091577,2.09829505 4.460597,2.09829505 3.867767,2.27483505 C3.693197,2.31943505 3.529627,2.39969505 3.387217,2.51061505 C3.287387,2.57240505 3.207377,2.66185505 3.156807,2.76822505 C3.106227,2.87459505 3.087237,2.99338505 3.102077,3.11034505 C3.116927,3.22730505 3.164977,3.33745505 3.240497,3.42763505 C3.316027,3.51781505 3.415787,3.58418505 3.527857,3.61876505 C4.023377,3.76486505 4.528657,3.87517505 5.039807,3.94884505 C5.649267,4.09031505 6.270447,4.16105505 6.868187,4.36146505 C7.388647,4.49834505 7.851227,4.80066505 8.187027,5.22339505 C8.522827,5.64612505 8.713877,6.16663505 8.731737,6.70743505 C8.805787,7.30780505 8.692077,7.91648505 8.406427,8.44887505 C8.120767,8.98127505 7.677367,9.41094505 7.137777,9.67819505 C6.516027,10.006595 5.833867,10.203195 5.133557,10.255895 C3.635397,10.417095 2.121267,10.185595 0.738397,9.58390505 C0.480421,9.46899505 0.233284,9.33091505 -2.22044605e-16,9.17130505 Z" id="Path"></path>
            </g>
            <g id="Vector" transform="translate(0.000000, 0.011841)">
                <path d="M24.3433,43.0528404 C26.3679,42.8427404 28.3117,42.1420404 30.008,41.0107404 C31.7043,39.8794404 33.1026,38.3512404 34.083,36.5571404 C35.3423,34.4760404 35.96,32.0661404 35.8577,29.6320404 C35.7555,27.1979404 34.9381,24.8489404 33.5087,22.8821404 C32.4876,21.3283404 31.1352,20.0228404 29.5498,19.0603404 C27.9645,18.0979404 26.1859,17.5026404 24.3433,17.3177404 L24.3433,43.0528404 Z M21.4601,43.0528404 L21.4601,17.3649404 C18.3169,17.7109404 15.4113,19.2119404 13.3006,21.5800404 C11.1898,23.9481404 10.0225,27.0166404 10.0225,30.1970404 C10.0225,33.3775404 11.1898,36.4460404 13.3006,38.8141404 C15.4113,41.1822404 18.3169,42.6831404 21.4601,43.0292404 L21.4601,43.0528404 Z M2.85979,2.9000604 L2.85979,43.1235404 L13.7481,43.1235404 C8.26292,38.6909404 6.08289,33.0676404 7.71203,26.0886404 C9.80999,19.2629404 14.5099,15.4787404 21.4835,14.3941404 L21.4835,2.9000604 L2.85979,2.9000604 Z M24.3199,1.31838984e-15 L24.3199,14.4413404 C24.7301,14.4413404 25.1052,14.5356404 25.4919,14.6063404 C27.8642,14.9927404 30.1153,15.9259404 32.0693,17.3330404 C34.0233,18.7401404 35.6271,20.5828404 36.7553,22.7170404 C38.145,25.2331404 38.7916,28.0961404 38.6188,30.9692404 C38.4448,34.4880404 37.1089,37.8479404 34.8225,40.5169404 C32.5362,43.1860404 29.4301,45.0118404 25.9959,45.7052404 C25.0107,45.8939404 24.0101,45.9882417 23.0072,45.9882417 C15.4944,45.9882417 7.94645,45.9882417 0.43365,45.9882417 L0,45.9882417 L0,45.5756404 C0,30.5487404 0,15.4983404 0,0.4243984 L0,1.31838984e-15 L24.3199,1.31838984e-15 Z" id="Shape"></path>
            </g>
        </g>
    </g>
</svg>